# xmcd CD database file
#
# Track frame offsets:
#	182
#	12107
#	24270
#	37407
#	50045
#	61457
#	75270
#	87720
#	101770
#	112882
#	126070
#	140957
#	154332
#	166045
#	178645
#
# Disc length: 2561 seconds
#
# Revision: 0
# Processed by: cddbd v1.4PL0 Copyright (c) Steve Scherf et al.
# Submitted via: CDex 1.50
#
DISCID=c709ff0f
DTITLE=Charlie Parker - Greatest Jazz
DYEAR=1900
DGENRE=Jazz
TTITLE0=Milestones
TTITLE1=Another Hair-Do
TTITLE2=Bluebird
TTITLE3=Klaunstance
TTITLE4=Constellation
TTITLE5=Parker's Mood
TTITLE6=Marmaduke
TTITLE7=Steeplechase
TTITLE8=Merry-Go-Round
TTITLE9=Tiny's Tempo
TTITLE10=Now's The Time
TTITLE11=Koko
TTITLE12=Donna Lee
TTITLE13=Chasin' The Bird
TTITLE14=Cheryl
EXTD=
EXTT0=
EXTT1=
EXTT2=
EXTT3=
EXTT4=
EXTT5=
EXTT6=
EXTT7=
EXTT8=
EXTT9=
EXTT10=
EXTT11=
EXTT12=
EXTT13=
EXTT14=
PLAYORDER=
